#tb 0: 1/25
#media_type 0: video
#codec_id 0: rawvideo
#dimensions 0: 176x144
#sar 0: 0/1
0,          0,          0,        1,    38016, 0xee831fe4
0,          1,          1,        1,    38016, 0xd9130e19
0,          2,          2,        1,    38016, 0x8ad70cae
0,          3,          3,        1,    38016, 0x98f11d0e
0,          4,          4,        1,    38016, 0x311d46ea
0,          5,          5,        1,    38016, 0xe2f15cc5
0,          6,          6,        1,    38016, 0xb4c174c6
0,          7,          7,        1,    38016, 0x22708406
0,          8,          8,        1,    38016, 0x7116a2d2
0,          9,          9,        1,    38016, 0x7937b29b
0,         10,         10,        1,    38016, 0xfa62a1d7
0,         11,         11,        1,    38016, 0x2066b1c6
0,         12,         12,        1,    38016, 0x18ecaa40
0,         13,         13,        1,    38016, 0xe5dc8d99
0,         14,         14,        1,    38016, 0x77046f4a
0,         15,         15,        1,    38016, 0x1c50704f
0,         16,         16,        1,    38016, 0x87f1879d
